<svg width="68" height="68" viewBox="0 0 68 68" fill="none" xmlns="http://www.w3.org/2000/svg">
<path fill-rule="evenodd" clip-rule="evenodd" d="M16.2987 0H51.7008L67.9995 16.2987V51.7008L51.7008 67.9995H16.2987L0 51.7008V16.2987L16.2987 0ZM16.6232 5.33236L24.1803 19.6647L19.6647 24.1803L5.33236 16.6232L16.6232 5.33236ZM4 20.4427L18.0362 27.8436V40.1559L4 47.5568V20.4427ZM5.33235 51.3763L16.6232 62.6672L24.1803 48.3348L19.6647 43.8192L5.33235 51.3763ZM22.0362 40.5339L27.4656 45.9633H40.5339L45.9633 40.5339V27.4656L40.5339 22.0362H27.4656L22.0362 27.4656V40.5339ZM27.8436 18.0362H40.1559L47.5568 4H20.4427L27.8436 18.0362ZM51.3763 5.33235L62.6672 16.6232L48.3348 24.1803L43.8192 19.6647L51.3763 5.33235ZM49.9633 27.8436V40.1559L63.9995 47.5568V20.4427L49.9633 27.8436ZM62.6672 51.3763L48.3348 43.8192L43.8192 48.3348L51.3763 62.6672L62.6672 51.3763ZM47.5568 63.9995L40.1559 49.9633H27.8436L20.4427 63.9995H47.5568Z" fill="white"/>
</svg>
