<svg width="64" height="25" viewBox="0 0 64 25" fill="none" xmlns="http://www.w3.org/2000/svg">
<path d="M4.78182 4.5H13.2182M4.78182 4.5L1 8.28182M4.78182 4.5L7.15934 9.00909M13.2182 4.5L17 8.28182M13.2182 4.5L10.8407 9.00909M13.2182 20.5H4.78182M13.2182 20.5L17 16.7182M13.2182 20.5L10.8407 15.9909M4.78182 20.5L1 16.7182M4.78182 20.5L7.15934 15.9909M17 8.28182V16.7182M17 8.28182L12.4909 10.6593M17 16.7182L12.4909 14.3407M1 16.7182V8.28182M1 16.7182L5.50909 14.3407M1 8.28182L5.50909 10.6593M7.15934 9.00909H10.8407M7.15934 9.00909L5.50909 10.6593M10.8407 9.00909L12.4909 10.6593M10.8407 15.9909H7.15934M10.8407 15.9909L12.4909 14.3407M7.15934 15.9909L5.50909 14.3407M12.4909 10.6593V14.3407M5.50909 14.3407V10.6593" stroke="white" stroke-width="1.5"/>
<path d="M30.516 19.2C29.1605 19.2 28.0216 18.9 27.0993 18.3C26.1882 17.7 25.5105 16.9056 25.066 15.9167C24.6216 14.9167 24.3993 13.8278 24.3993 12.65C24.3993 11.4611 24.6216 10.3722 25.066 9.38333C25.5105 8.38333 26.1882 7.58333 27.0993 6.98333C28.0216 6.38333 29.1549 6.08333 30.4993 6.08333C31.9882 6.08333 33.2049 6.43889 34.1493 7.15C35.1049 7.85 35.7438 8.80556 36.066 10.0167H33.8827C33.6382 9.32778 33.2216 8.79444 32.6327 8.41667C32.0549 8.03889 31.3382 7.85 30.4827 7.85C29.5938 7.85 28.8438 8.06667 28.2327 8.5C27.6216 8.92222 27.166 9.49444 26.866 10.2167C26.566 10.9278 26.416 11.7278 26.416 12.6167C26.416 13.5278 26.5716 14.35 26.8827 15.0833C27.2049 15.8056 27.6771 16.3833 28.2993 16.8167C28.9327 17.2389 29.6993 17.45 30.5993 17.45C31.4216 17.45 32.1382 17.2667 32.7493 16.9C33.3605 16.5222 33.7938 16.0167 34.0493 15.3833C34.1382 15.1722 34.2216 14.8444 34.2993 14.4C34.3216 14.2444 34.3438 14.1222 34.366 14.0333C34.3993 13.9333 34.4438 13.8556 34.4993 13.8L34.2993 13.6C34.1549 13.7222 34.0105 13.8 33.866 13.8333C33.7327 13.8667 33.4827 13.8833 33.116 13.8833H31.366V12.2167H36.2327V19H34.4493V17.0333H34.1827C34.1827 17.6111 33.8716 18.1 33.2493 18.5C32.9049 18.7222 32.4938 18.8944 32.016 19.0167C31.5382 19.1389 31.0382 19.2 30.516 19.2ZM38.4406 19V6.28333H46.8073V8.05H40.4073V11.75H46.0906V13.5H40.4073V17.2333H46.8073V19H38.4406ZM48.7434 6.28333H52.11L54.6767 15C54.7878 15.3778 54.8711 15.7167 54.9267 16.0167C54.9822 16.3167 55.01 16.6833 55.01 17.1167H55.2767C55.2767 16.6833 55.2989 16.3111 55.3434 16C55.3989 15.6889 55.4822 15.3556 55.5934 15L58.16 6.28333H61.5267V19H59.56V9.71667C59.56 9.15 59.5934 8.53889 59.66 7.88333L59.3934 7.85C59.2822 8.48333 59.1322 9.10556 58.9434 9.71667L56.11 19H54.1767L51.31 9.71667C51.1434 9.17222 51.0045 8.55 50.8934 7.85L50.6267 7.88333C50.6822 8.53889 50.71 9.15 50.71 9.71667V19H48.7434V6.28333Z" fill="white"/>
</svg>
